/vscmnt/brussel_pixiu_data/_data_brussel/112/vsc11236/PredSimResults/SUBJ07opt3D/trackIG/worker_04.mot
version=1
nRows=9
nColumns=50
inDegrees=yes
endheader
                time	         pelvis_tilt	         pelvis_list	     pelvis_rotation	           pelvis_tx	           pelvis_ty	           pelvis_tz	       hip_flexion_r	     hip_adduction_r	      hip_rotation_r	        knee_angle_r	       ankle_angle_r	         mtp_angle_r	       hip_flexion_l	     hip_adduction_l	      hip_rotation_l	        knee_angle_l	       ankle_angle_l	         mtp_angle_l	    lumbar_extension	      lumbar_bending	     lumbar_rotation	 ercspn_r/activation	 intobl_r/activation	 extobl_r/activation	    abd_r/activation	    add_r/activation	hamstrings_r/activation	bifemsh_r/activation	glut_max_r/activation	iliopsoas_r/activation	rect_fem_r/activation	  vasti_r/activation	gastroc_r/activation	 soleus_r/activation	tib_ant_r/activation	 ercspn_l/activation	 intobl_l/activation	 extobl_l/activation	    abd_l/activation	    add_l/activation	hamstrings_l/activation	bifemsh_l/activation	glut_max_l/activation	iliopsoas_l/activation	rect_fem_l/activation	  vasti_l/activation	gastroc_l/activation	 soleus_l/activation	tib_ant_l/activation	
          1.89881702	         -2.54010964	          0.31090072	         -8.11000611	          1.70893532	          0.86243862	          0.01739757	        -11.81309770	          0.17255980	          3.26785310	         -7.55177293	         11.08603440	         20.83348715	         26.38372985	         -2.17450551	         -3.07077681	         -6.97997553	          0.62015713	          0.24174386	         -8.31769473	          2.84474350	         -0.13510401	          0.04612373	          0.00999999	          0.00999999	          0.05306677	          0.00999999	          0.01000001	          0.11812489	          0.00999999	          0.13238046	          0.00999999	          0.00999999	          0.13578700	          0.27762143	          0.02150537	          0.12718124	          0.15175211	          0.00999999	          0.01320793	          0.08719582	          0.03488115	          0.00999999	          0.02072854	          0.02012848	          0.01210979	          0.01210979	          0.00999999	          0.00999999	          0.33404517	
          1.91147580	         -2.58627174	          0.24592545	         -8.09527884	          1.72198033	          0.86107087	          0.01674372	        -12.29909482	          0.12852740	          2.86363913	         -8.20868112	         10.63267988	         22.18267583	         26.01353150	         -1.96088670	         -2.81725059	         -7.64512122	          0.39209376	          0.24397825	         -8.22623417	          2.50312965	          0.09501254	          0.08028693	          0.00999999	          0.00999999	          0.04382136	          0.00999999	          0.01000002	          0.09754490	          0.01305030	          0.10931684	          0.01793652	          0.00999999	          0.12343246	          0.27178284	          0.01775866	          0.11715615	          0.12568957	          0.00999999	          0.01090682	          0.10917123	          0.02926564	          0.08809463	          0.06420643	          0.01662165	          0.00999999	          0.00999999	          0.01466470	          0.01267032	          0.32769818	
          1.92413458	         -2.62617452	          0.17529422	         -8.03620614	          1.73530871	          0.85985869	          0.01601079	        -12.75493066	          0.09345033	          2.43207416	         -8.95863798	         10.06504490	         23.54089633	         25.58815636	         -1.78252001	         -2.52484466	         -8.44097552	          0.12867270	          0.23744249	         -8.11767756	          2.14845441	          0.33303262	          0.08930618	          0.00999999	          0.00999999	          0.03618670	          0.00999999	          0.01000007	          0.08055040	          0.01077665	          0.09027140	          0.01481159	          0.01231658	          0.10192777	          0.26290343	          0.01466470	          0.10728145	          0.12814225	          0.00999999	          0.02272247	          0.09874712	          0.03703718	          0.07981080	          0.06709885	          0.01372579	          0.00999999	          0.00999999	          0.01210979	          0.01046287	          0.36370023	
          1.93679336	         -2.66101532	          0.09735439	         -7.92851542	          1.74878547	          0.85891845	          0.01517239	        -13.12818637	          0.07106798	          1.97806169	         -9.87244587	          9.36091547	         24.89959976	         25.16275157	         -1.62989216	         -2.26720227	         -9.21506939	         -0.23070180	          0.22959763	         -8.00792558	          1.78883609	          0.57516731	          0.10743458	          0.00999999	          0.00999999	          0.02988217	          0.00999999	          0.01000000	          0.06651673	          0.00999999	          0.07454411	          0.02150538	          0.01510928	          0.08416968	          0.24952542	          0.01210978	          0.12313208	          0.10581701	          0.00999999	          0.06616697	          0.11713496	          0.04050689	          0.06590598	          0.07292480	          0.01133445	          0.00999999	          0.00999999	          0.00999999	          0.00999999	          0.39339809	
          1.94945214	         -2.69030386	          0.00527901	         -7.77422770	          1.76233220	          0.85836673	          0.01423516	        -13.38656637	          0.06939025	          1.49994883	        -10.98799337	          8.47685389	         26.25449057	         24.78082173	         -1.49649884	         -2.07032260	        -10.07980090	         -0.53663636	          0.21875319	         -7.90132124	          1.43435025	          0.81652487	          0.12982556	          0.00999999	          0.00999999	          0.02467603	          0.00999999	          0.01000001	          0.05492803	          0.00999999	          0.06155687	          0.01775866	          0.02011877	          0.06950544	          0.23213048	          0.00999999	          0.12733146	          0.08738133	          0.00999999	          0.09922517	          0.12945089	          0.04182383	          0.05442369	          0.08130658	          0.00999999	          0.00999999	          0.01159291	          0.00999999	          0.00999999	          0.40865240	
          1.96211092	         -2.71371085	         -0.09982020	         -7.57829311	          1.77588278	          0.85830870	          0.01321090	        -13.50249372	          0.08653951	          0.99603948	        -12.33390845	          7.38671287	         27.57065663	         24.46149832	         -1.37963635	         -1.92733679	        -11.09056772	         -0.65309214	          0.20599106	         -7.79803166	          1.08839391	          1.05384206	          0.15348853	          0.00999999	          0.00999999	          0.02037691	          0.01517114	          0.01000005	          0.04535834	          0.00999999	          0.05083229	          0.01466471	          0.02794894	          0.05739604	          0.20981346	          0.00999999	          0.12466028	          0.07215755	          0.00999999	          0.12658592	          0.14094598	          0.04471934	          0.04494187	          0.08489660	          0.00999999	          0.00999999	          0.02188258	          0.00999999	          0.00999999	          0.40406604	
          1.97476970	         -2.73183439	         -0.21606547	         -7.34611935	          1.78937321	          0.85882478	          0.01211073	        -13.45170021	          0.11942323	          0.46058274	        -13.93278306	          6.09101709	         28.76481590	         24.19184081	         -1.27342159	         -1.81112574	        -12.22929441	         -0.50256416	          0.19754990	         -7.69844779	          0.75426792	          1.28719653	          0.16740705	          0.00999999	          0.00999999	          0.01682680	          0.03518026	          0.01393286	          0.03745591	          0.00999999	          0.04197617	          0.01210979	          0.02943381	          0.04739637	          0.18543121	          0.00999999	          0.12510971	          0.05958609	          0.00999999	          0.14248135	          0.15861652	          0.04719565	          0.03711199	          0.09342343	          0.00999999	          0.00999999	          0.02833021	          0.00999999	          0.00999999	          0.37991973	
          1.98742848	         -2.74491955	         -0.34546599	         -7.08144035	          1.80275519	          0.85991002	          0.01094967	        -13.18816930	          0.16865190	         -0.11890034	        -15.86444671	          4.65635931	         29.69313511	         23.93477680	         -1.17626866	         -1.70086648	        -13.42690782	         -0.07414311	          0.22158892	         -7.60280027	          0.43678072	          1.51482128	          0.17793980	          0.00999999	          0.00999999	          0.01389520	          0.06211473	          0.01509655	          0.03093025	          0.00999999	          0.03466298	          0.00999999	          0.02720942	          0.03913887	          0.15345760	          0.00999999	          0.12547200	          0.04920487	          0.00999999	          0.15222663	          0.17731381	          0.05187892	          0.03064626	          0.10232858	          0.00999999	          0.00999999	          0.03302730	          0.00999999	          0.00999999	          0.33045083	
          2.00008726	         -2.75305951	         -0.48843714	         -6.78826967	          1.81598959	          0.86149677	          0.00974197	        -12.64762502	          0.22860074	         -0.75420498	        -18.24942032	          3.18350135	         30.16408524	         23.63733847	         -1.08571357	         -1.57617632	        -14.57236622	          0.57395317	          0.31269693	         -7.51101533	          0.13765256	          1.73486105	          0.18258868	          0.00999999	          0.00999999	          0.01147434	          0.09039657	          0.01591218	          0.02554151	          0.00999999	          0.02862392	          0.00999999	          0.02246893	          0.03232000	          0.12672186	          0.00999999	          0.12286976	          0.04063228	          0.00999999	          0.15501894	          0.19158134	          0.05809064	          0.02530700	          0.10771605	          0.00999999	          0.00999999	          0.03875063	          0.00999999	          0.00999999	          0.28038426	
